<mxfile host="app.diagrams.net" agent="Mozilla/5.0 (Windows NT 10.0; Win64; x64) AppleWebKit/537.36 (KHTML, like Gecko) Chrome/135.0.0.0 Safari/537.36 Edg/135.0.0.0" version="26.2.14">
  <diagram name="PÃ¡gina-1" id="cSHpWmDz-cbe3zUjw3p9">
    <mxGraphModel dx="2245" dy="1963" grid="1" gridSize="10" guides="1" tooltips="1" connect="1" arrows="1" fold="1" page="1" pageScale="1" pageWidth="827" pageHeight="1169" math="0" shadow="0">
      <root>
        <mxCell id="0" />
        <mxCell id="1" parent="0" />
        <mxCell id="zcxD7a6JZqpd-PVWqcIB-17" style="edgeStyle=orthogonalEdgeStyle;rounded=0;orthogonalLoop=1;jettySize=auto;html=1;entryX=0.5;entryY=1;entryDx=0;entryDy=0;" edge="1" parent="1" source="zcxD7a6JZqpd-PVWqcIB-1" target="zcxD7a6JZqpd-PVWqcIB-5">
          <mxGeometry relative="1" as="geometry" />
        </mxCell>
        <mxCell id="zcxD7a6JZqpd-PVWqcIB-1" value="Cliente" style="swimlane;fontStyle=1;align=center;verticalAlign=top;childLayout=stackLayout;horizontal=1;startSize=26;horizontalStack=0;resizeParent=1;resizeParentMax=0;resizeLast=0;collapsible=1;marginBottom=0;whiteSpace=wrap;html=1;" vertex="1" parent="1">
          <mxGeometry x="200" y="240" width="180" height="144" as="geometry" />
        </mxCell>
        <mxCell id="zcxD7a6JZqpd-PVWqcIB-2" value="+ id : long&lt;div&gt;+nome : String&lt;/div&gt;&lt;div&gt;+cpf : String&lt;/div&gt;&lt;div&gt;+endereco : Endereco&lt;/div&gt;&lt;div&gt;+assinatura : PlanoDoCliente&lt;/div&gt;" style="text;strokeColor=none;fillColor=none;align=left;verticalAlign=top;spacingLeft=4;spacingRight=4;overflow=hidden;rotatable=0;points=[[0,0.5],[1,0.5]];portConstraint=eastwest;whiteSpace=wrap;html=1;" vertex="1" parent="zcxD7a6JZqpd-PVWqcIB-1">
          <mxGeometry y="26" width="180" height="84" as="geometry" />
        </mxCell>
        <mxCell id="zcxD7a6JZqpd-PVWqcIB-3" value="" style="line;strokeWidth=1;fillColor=none;align=left;verticalAlign=middle;spacingTop=-1;spacingLeft=3;spacingRight=3;rotatable=0;labelPosition=right;points=[];portConstraint=eastwest;strokeColor=inherit;" vertex="1" parent="zcxD7a6JZqpd-PVWqcIB-1">
          <mxGeometry y="110" width="180" height="8" as="geometry" />
        </mxCell>
        <mxCell id="zcxD7a6JZqpd-PVWqcIB-4" value="+ Getters e Setters" style="text;strokeColor=none;fillColor=none;align=left;verticalAlign=top;spacingLeft=4;spacingRight=4;overflow=hidden;rotatable=0;points=[[0,0.5],[1,0.5]];portConstraint=eastwest;whiteSpace=wrap;html=1;" vertex="1" parent="zcxD7a6JZqpd-PVWqcIB-1">
          <mxGeometry y="118" width="180" height="26" as="geometry" />
        </mxCell>
        <mxCell id="zcxD7a6JZqpd-PVWqcIB-5" value="Endereco" style="swimlane;fontStyle=1;align=center;verticalAlign=top;childLayout=stackLayout;horizontal=1;startSize=26;horizontalStack=0;resizeParent=1;resizeParentMax=0;resizeLast=0;collapsible=1;marginBottom=0;whiteSpace=wrap;html=1;" vertex="1" parent="1">
          <mxGeometry x="210" y="80" width="160" height="114" as="geometry" />
        </mxCell>
        <mxCell id="zcxD7a6JZqpd-PVWqcIB-6" value="&lt;div&gt;- id : long&lt;/div&gt;- rua : String&lt;div&gt;- numero : int&lt;/div&gt;" style="text;strokeColor=none;fillColor=none;align=left;verticalAlign=top;spacingLeft=4;spacingRight=4;overflow=hidden;rotatable=0;points=[[0,0.5],[1,0.5]];portConstraint=eastwest;whiteSpace=wrap;html=1;" vertex="1" parent="zcxD7a6JZqpd-PVWqcIB-5">
          <mxGeometry y="26" width="160" height="54" as="geometry" />
        </mxCell>
        <mxCell id="zcxD7a6JZqpd-PVWqcIB-7" value="" style="line;strokeWidth=1;fillColor=none;align=left;verticalAlign=middle;spacingTop=-1;spacingLeft=3;spacingRight=3;rotatable=0;labelPosition=right;points=[];portConstraint=eastwest;strokeColor=inherit;" vertex="1" parent="zcxD7a6JZqpd-PVWqcIB-5">
          <mxGeometry y="80" width="160" height="8" as="geometry" />
        </mxCell>
        <mxCell id="zcxD7a6JZqpd-PVWqcIB-8" value="+ Getters e setters" style="text;strokeColor=none;fillColor=none;align=left;verticalAlign=top;spacingLeft=4;spacingRight=4;overflow=hidden;rotatable=0;points=[[0,0.5],[1,0.5]];portConstraint=eastwest;whiteSpace=wrap;html=1;" vertex="1" parent="zcxD7a6JZqpd-PVWqcIB-5">
          <mxGeometry y="88" width="160" height="26" as="geometry" />
        </mxCell>
        <mxCell id="zcxD7a6JZqpd-PVWqcIB-19" style="edgeStyle=orthogonalEdgeStyle;rounded=0;orthogonalLoop=1;jettySize=auto;html=1;entryX=0.5;entryY=0;entryDx=0;entryDy=0;" edge="1" parent="1" source="zcxD7a6JZqpd-PVWqcIB-9" target="zcxD7a6JZqpd-PVWqcIB-13">
          <mxGeometry relative="1" as="geometry" />
        </mxCell>
        <mxCell id="zcxD7a6JZqpd-PVWqcIB-9" value="PlanoDoCLiente" style="swimlane;fontStyle=1;align=center;verticalAlign=top;childLayout=stackLayout;horizontal=1;startSize=26;horizontalStack=0;resizeParent=1;resizeParentMax=0;resizeLast=0;collapsible=1;marginBottom=0;whiteSpace=wrap;html=1;" vertex="1" parent="1">
          <mxGeometry x="480" y="250" width="160" height="114" as="geometry" />
        </mxCell>
        <mxCell id="zcxD7a6JZqpd-PVWqcIB-10" value="- id : long&lt;div&gt;- plano : Plano&lt;/div&gt;&lt;div&gt;- status: Boolean&lt;/div&gt;" style="text;strokeColor=none;fillColor=none;align=left;verticalAlign=top;spacingLeft=4;spacingRight=4;overflow=hidden;rotatable=0;points=[[0,0.5],[1,0.5]];portConstraint=eastwest;whiteSpace=wrap;html=1;" vertex="1" parent="zcxD7a6JZqpd-PVWqcIB-9">
          <mxGeometry y="26" width="160" height="54" as="geometry" />
        </mxCell>
        <mxCell id="zcxD7a6JZqpd-PVWqcIB-11" value="" style="line;strokeWidth=1;fillColor=none;align=left;verticalAlign=middle;spacingTop=-1;spacingLeft=3;spacingRight=3;rotatable=0;labelPosition=right;points=[];portConstraint=eastwest;strokeColor=inherit;" vertex="1" parent="zcxD7a6JZqpd-PVWqcIB-9">
          <mxGeometry y="80" width="160" height="8" as="geometry" />
        </mxCell>
        <mxCell id="zcxD7a6JZqpd-PVWqcIB-12" value="+ getters e Setters" style="text;strokeColor=none;fillColor=none;align=left;verticalAlign=top;spacingLeft=4;spacingRight=4;overflow=hidden;rotatable=0;points=[[0,0.5],[1,0.5]];portConstraint=eastwest;whiteSpace=wrap;html=1;" vertex="1" parent="zcxD7a6JZqpd-PVWqcIB-9">
          <mxGeometry y="88" width="160" height="26" as="geometry" />
        </mxCell>
        <mxCell id="zcxD7a6JZqpd-PVWqcIB-13" value="Plano" style="swimlane;fontStyle=1;align=center;verticalAlign=top;childLayout=stackLayout;horizontal=1;startSize=26;horizontalStack=0;resizeParent=1;resizeParentMax=0;resizeLast=0;collapsible=1;marginBottom=0;whiteSpace=wrap;html=1;" vertex="1" parent="1">
          <mxGeometry x="480" y="471" width="160" height="114" as="geometry" />
        </mxCell>
        <mxCell id="zcxD7a6JZqpd-PVWqcIB-14" value="- id : long&lt;div&gt;- megas : int&lt;/div&gt;&lt;div&gt;- preco : double&lt;/div&gt;" style="text;strokeColor=none;fillColor=none;align=left;verticalAlign=top;spacingLeft=4;spacingRight=4;overflow=hidden;rotatable=0;points=[[0,0.5],[1,0.5]];portConstraint=eastwest;whiteSpace=wrap;html=1;" vertex="1" parent="zcxD7a6JZqpd-PVWqcIB-13">
          <mxGeometry y="26" width="160" height="54" as="geometry" />
        </mxCell>
        <mxCell id="zcxD7a6JZqpd-PVWqcIB-15" value="" style="line;strokeWidth=1;fillColor=none;align=left;verticalAlign=middle;spacingTop=-1;spacingLeft=3;spacingRight=3;rotatable=0;labelPosition=right;points=[];portConstraint=eastwest;strokeColor=inherit;" vertex="1" parent="zcxD7a6JZqpd-PVWqcIB-13">
          <mxGeometry y="80" width="160" height="8" as="geometry" />
        </mxCell>
        <mxCell id="zcxD7a6JZqpd-PVWqcIB-16" value="Getters e Setters" style="text;strokeColor=none;fillColor=none;align=left;verticalAlign=top;spacingLeft=4;spacingRight=4;overflow=hidden;rotatable=0;points=[[0,0.5],[1,0.5]];portConstraint=eastwest;whiteSpace=wrap;html=1;" vertex="1" parent="zcxD7a6JZqpd-PVWqcIB-13">
          <mxGeometry y="88" width="160" height="26" as="geometry" />
        </mxCell>
        <mxCell id="zcxD7a6JZqpd-PVWqcIB-18" style="edgeStyle=orthogonalEdgeStyle;rounded=0;orthogonalLoop=1;jettySize=auto;html=1;entryX=-0.012;entryY=0.648;entryDx=0;entryDy=0;entryPerimeter=0;" edge="1" parent="1" source="zcxD7a6JZqpd-PVWqcIB-2" target="zcxD7a6JZqpd-PVWqcIB-10">
          <mxGeometry relative="1" as="geometry" />
        </mxCell>
        <mxCell id="zcxD7a6JZqpd-PVWqcIB-20" value="ClienteRepository" style="swimlane;fontStyle=1;align=center;verticalAlign=top;childLayout=stackLayout;horizontal=1;startSize=26;horizontalStack=0;resizeParent=1;resizeParentMax=0;resizeLast=0;collapsible=1;marginBottom=0;whiteSpace=wrap;html=1;" vertex="1" parent="1">
          <mxGeometry x="-90" y="250" width="190" height="130" as="geometry" />
        </mxCell>
        <mxCell id="zcxD7a6JZqpd-PVWqcIB-21" value="- listaCliente : Arraylist&amp;lt;Clientes&amp;gt;&lt;div&gt;&lt;br&gt;&lt;/div&gt;" style="text;strokeColor=none;fillColor=none;align=left;verticalAlign=top;spacingLeft=4;spacingRight=4;overflow=hidden;rotatable=0;points=[[0,0.5],[1,0.5]];portConstraint=eastwest;whiteSpace=wrap;html=1;" vertex="1" parent="zcxD7a6JZqpd-PVWqcIB-20">
          <mxGeometry y="26" width="190" height="24" as="geometry" />
        </mxCell>
        <mxCell id="zcxD7a6JZqpd-PVWqcIB-22" value="" style="line;strokeWidth=1;fillColor=none;align=left;verticalAlign=middle;spacingTop=-1;spacingLeft=3;spacingRight=3;rotatable=0;labelPosition=right;points=[];portConstraint=eastwest;strokeColor=inherit;" vertex="1" parent="zcxD7a6JZqpd-PVWqcIB-20">
          <mxGeometry y="50" width="190" height="8" as="geometry" />
        </mxCell>
        <mxCell id="zcxD7a6JZqpd-PVWqcIB-23" value="+getter&lt;div&gt;+addcliente(Cliente) : void&lt;/div&gt;&lt;div&gt;+removeCliente(int) ; void&lt;/div&gt;&lt;div&gt;+getClienteById(int) : void&lt;/div&gt;" style="text;strokeColor=none;fillColor=none;align=left;verticalAlign=top;spacingLeft=4;spacingRight=4;overflow=hidden;rotatable=0;points=[[0,0.5],[1,0.5]];portConstraint=eastwest;whiteSpace=wrap;html=1;" vertex="1" parent="zcxD7a6JZqpd-PVWqcIB-20">
          <mxGeometry y="58" width="190" height="72" as="geometry" />
        </mxCell>
        <mxCell id="zcxD7a6JZqpd-PVWqcIB-28" value="EnderecoRepository" style="swimlane;fontStyle=1;align=center;verticalAlign=top;childLayout=stackLayout;horizontal=1;startSize=26;horizontalStack=0;resizeParent=1;resizeParentMax=0;resizeLast=0;collapsible=1;marginBottom=0;whiteSpace=wrap;html=1;" vertex="1" parent="1">
          <mxGeometry x="-100" y="80" width="210" height="110" as="geometry" />
        </mxCell>
        <mxCell id="zcxD7a6JZqpd-PVWqcIB-29" value="- listaEndereco : Arraylist&amp;lt;Endereco&amp;gt;&lt;div&gt;&lt;br&gt;&lt;/div&gt;" style="text;strokeColor=none;fillColor=none;align=left;verticalAlign=top;spacingLeft=4;spacingRight=4;overflow=hidden;rotatable=0;points=[[0,0.5],[1,0.5]];portConstraint=eastwest;whiteSpace=wrap;html=1;" vertex="1" parent="zcxD7a6JZqpd-PVWqcIB-28">
          <mxGeometry y="26" width="210" height="24" as="geometry" />
        </mxCell>
        <mxCell id="zcxD7a6JZqpd-PVWqcIB-30" value="" style="line;strokeWidth=1;fillColor=none;align=left;verticalAlign=middle;spacingTop=-1;spacingLeft=3;spacingRight=3;rotatable=0;labelPosition=right;points=[];portConstraint=eastwest;strokeColor=inherit;" vertex="1" parent="zcxD7a6JZqpd-PVWqcIB-28">
          <mxGeometry y="50" width="210" height="8" as="geometry" />
        </mxCell>
        <mxCell id="zcxD7a6JZqpd-PVWqcIB-31" value="+getter&lt;div&gt;+addEndereco(Endereco) : void&lt;/div&gt;&lt;div&gt;+removeEndereco(int) ; void&lt;/div&gt;" style="text;strokeColor=none;fillColor=none;align=left;verticalAlign=top;spacingLeft=4;spacingRight=4;overflow=hidden;rotatable=0;points=[[0,0.5],[1,0.5]];portConstraint=eastwest;whiteSpace=wrap;html=1;" vertex="1" parent="zcxD7a6JZqpd-PVWqcIB-28">
          <mxGeometry y="58" width="210" height="52" as="geometry" />
        </mxCell>
        <mxCell id="zcxD7a6JZqpd-PVWqcIB-47" style="edgeStyle=orthogonalEdgeStyle;rounded=0;orthogonalLoop=1;jettySize=auto;html=1;entryX=0.5;entryY=0;entryDx=0;entryDy=0;" edge="1" parent="1" source="zcxD7a6JZqpd-PVWqcIB-36" target="zcxD7a6JZqpd-PVWqcIB-9">
          <mxGeometry relative="1" as="geometry" />
        </mxCell>
        <mxCell id="zcxD7a6JZqpd-PVWqcIB-36" value="PlanoDoClienteRepository" style="swimlane;fontStyle=1;align=center;verticalAlign=top;childLayout=stackLayout;horizontal=1;startSize=26;horizontalStack=0;resizeParent=1;resizeParentMax=0;resizeLast=0;collapsible=1;marginBottom=0;whiteSpace=wrap;html=1;" vertex="1" parent="1">
          <mxGeometry x="414" y="70" width="290" height="130" as="geometry" />
        </mxCell>
        <mxCell id="zcxD7a6JZqpd-PVWqcIB-37" value="- listaPlanoDoCliente : Arraylist&amp;lt;PlanoDoCliente&amp;gt;&lt;div&gt;&lt;br&gt;&lt;/div&gt;" style="text;strokeColor=none;fillColor=none;align=left;verticalAlign=top;spacingLeft=4;spacingRight=4;overflow=hidden;rotatable=0;points=[[0,0.5],[1,0.5]];portConstraint=eastwest;whiteSpace=wrap;html=1;" vertex="1" parent="zcxD7a6JZqpd-PVWqcIB-36">
          <mxGeometry y="26" width="290" height="24" as="geometry" />
        </mxCell>
        <mxCell id="zcxD7a6JZqpd-PVWqcIB-38" value="" style="line;strokeWidth=1;fillColor=none;align=left;verticalAlign=middle;spacingTop=-1;spacingLeft=3;spacingRight=3;rotatable=0;labelPosition=right;points=[];portConstraint=eastwest;strokeColor=inherit;" vertex="1" parent="zcxD7a6JZqpd-PVWqcIB-36">
          <mxGeometry y="50" width="290" height="8" as="geometry" />
        </mxCell>
        <mxCell id="zcxD7a6JZqpd-PVWqcIB-39" value="+getter&lt;div&gt;+addPlanoDoCliente(PlanoDoCliente) : void&lt;/div&gt;&lt;div&gt;+removePlanoDoCliente(int) ; void&lt;/div&gt;" style="text;strokeColor=none;fillColor=none;align=left;verticalAlign=top;spacingLeft=4;spacingRight=4;overflow=hidden;rotatable=0;points=[[0,0.5],[1,0.5]];portConstraint=eastwest;whiteSpace=wrap;html=1;" vertex="1" parent="zcxD7a6JZqpd-PVWqcIB-36">
          <mxGeometry y="58" width="290" height="72" as="geometry" />
        </mxCell>
        <mxCell id="zcxD7a6JZqpd-PVWqcIB-40" value="PlanoRepository" style="swimlane;fontStyle=1;align=center;verticalAlign=top;childLayout=stackLayout;horizontal=1;startSize=26;horizontalStack=0;resizeParent=1;resizeParentMax=0;resizeLast=0;collapsible=1;marginBottom=0;whiteSpace=wrap;html=1;" vertex="1" parent="1">
          <mxGeometry x="180" y="475" width="210" height="110" as="geometry" />
        </mxCell>
        <mxCell id="zcxD7a6JZqpd-PVWqcIB-41" value="- listaPlano : Arraylist&amp;lt;Plano&amp;gt;&lt;div&gt;&lt;br&gt;&lt;/div&gt;" style="text;strokeColor=none;fillColor=none;align=left;verticalAlign=top;spacingLeft=4;spacingRight=4;overflow=hidden;rotatable=0;points=[[0,0.5],[1,0.5]];portConstraint=eastwest;whiteSpace=wrap;html=1;" vertex="1" parent="zcxD7a6JZqpd-PVWqcIB-40">
          <mxGeometry y="26" width="210" height="24" as="geometry" />
        </mxCell>
        <mxCell id="zcxD7a6JZqpd-PVWqcIB-42" value="" style="line;strokeWidth=1;fillColor=none;align=left;verticalAlign=middle;spacingTop=-1;spacingLeft=3;spacingRight=3;rotatable=0;labelPosition=right;points=[];portConstraint=eastwest;strokeColor=inherit;" vertex="1" parent="zcxD7a6JZqpd-PVWqcIB-40">
          <mxGeometry y="50" width="210" height="8" as="geometry" />
        </mxCell>
        <mxCell id="zcxD7a6JZqpd-PVWqcIB-43" value="+getter&lt;div&gt;+addPlano(Plano) : void&lt;/div&gt;&lt;div&gt;+removePlano(int) ; void&lt;/div&gt;" style="text;strokeColor=none;fillColor=none;align=left;verticalAlign=top;spacingLeft=4;spacingRight=4;overflow=hidden;rotatable=0;points=[[0,0.5],[1,0.5]];portConstraint=eastwest;whiteSpace=wrap;html=1;" vertex="1" parent="zcxD7a6JZqpd-PVWqcIB-40">
          <mxGeometry y="58" width="210" height="52" as="geometry" />
        </mxCell>
        <mxCell id="zcxD7a6JZqpd-PVWqcIB-44" style="edgeStyle=orthogonalEdgeStyle;rounded=0;orthogonalLoop=1;jettySize=auto;html=1;entryX=0.017;entryY=0.262;entryDx=0;entryDy=0;entryPerimeter=0;" edge="1" parent="1" source="zcxD7a6JZqpd-PVWqcIB-21" target="zcxD7a6JZqpd-PVWqcIB-2">
          <mxGeometry relative="1" as="geometry" />
        </mxCell>
        <mxCell id="zcxD7a6JZqpd-PVWqcIB-46" style="edgeStyle=orthogonalEdgeStyle;rounded=0;orthogonalLoop=1;jettySize=auto;html=1;entryX=0;entryY=0.5;entryDx=0;entryDy=0;" edge="1" parent="1" source="zcxD7a6JZqpd-PVWqcIB-30" target="zcxD7a6JZqpd-PVWqcIB-6">
          <mxGeometry relative="1" as="geometry" />
        </mxCell>
        <mxCell id="zcxD7a6JZqpd-PVWqcIB-48" style="edgeStyle=orthogonalEdgeStyle;rounded=0;orthogonalLoop=1;jettySize=auto;html=1;entryX=-0.006;entryY=0.63;entryDx=0;entryDy=0;entryPerimeter=0;" edge="1" parent="1" source="zcxD7a6JZqpd-PVWqcIB-42" target="zcxD7a6JZqpd-PVWqcIB-14">
          <mxGeometry relative="1" as="geometry" />
        </mxCell>
        <mxCell id="zcxD7a6JZqpd-PVWqcIB-49" value="CRUDCliente" style="swimlane;fontStyle=1;align=center;verticalAlign=top;childLayout=stackLayout;horizontal=1;startSize=26;horizontalStack=0;resizeParent=1;resizeParentMax=0;resizeLast=0;collapsible=1;marginBottom=0;whiteSpace=wrap;html=1;" vertex="1" parent="1">
          <mxGeometry x="-320" y="260" width="160" height="104" as="geometry" />
        </mxCell>
        <mxCell id="zcxD7a6JZqpd-PVWqcIB-51" value="" style="line;strokeWidth=1;fillColor=none;align=left;verticalAlign=middle;spacingTop=-1;spacingLeft=3;spacingRight=3;rotatable=0;labelPosition=right;points=[];portConstraint=eastwest;strokeColor=inherit;" vertex="1" parent="zcxD7a6JZqpd-PVWqcIB-49">
          <mxGeometry y="26" width="160" height="8" as="geometry" />
        </mxCell>
        <mxCell id="zcxD7a6JZqpd-PVWqcIB-52" value="+createCliente( ) : void&lt;div&gt;+readCliente( ) : void&lt;/div&gt;&lt;div&gt;+updateCliente( ) :void&lt;/div&gt;&lt;div&gt;+deleteCliente( ) : void&lt;/div&gt;" style="text;strokeColor=none;fillColor=none;align=left;verticalAlign=top;spacingLeft=4;spacingRight=4;overflow=hidden;rotatable=0;points=[[0,0.5],[1,0.5]];portConstraint=eastwest;whiteSpace=wrap;html=1;" vertex="1" parent="zcxD7a6JZqpd-PVWqcIB-49">
          <mxGeometry y="34" width="160" height="70" as="geometry" />
        </mxCell>
        <mxCell id="zcxD7a6JZqpd-PVWqcIB-53" value="CreateCliente" style="swimlane;fontStyle=1;align=center;verticalAlign=top;childLayout=stackLayout;horizontal=1;startSize=26;horizontalStack=0;resizeParent=1;resizeParentMax=0;resizeLast=0;collapsible=1;marginBottom=0;whiteSpace=wrap;html=1;" vertex="1" parent="1">
          <mxGeometry x="-700" y="277" width="330" height="60" as="geometry" />
        </mxCell>
        <mxCell id="zcxD7a6JZqpd-PVWqcIB-55" value="" style="line;strokeWidth=1;fillColor=none;align=left;verticalAlign=middle;spacingTop=-1;spacingLeft=3;spacingRight=3;rotatable=0;labelPosition=right;points=[];portConstraint=eastwest;strokeColor=inherit;" vertex="1" parent="zcxD7a6JZqpd-PVWqcIB-53">
          <mxGeometry y="26" width="330" height="8" as="geometry" />
        </mxCell>
        <mxCell id="zcxD7a6JZqpd-PVWqcIB-56" value="+ createCliente(long,String,Sting,Endereco,PlanoDoCliente)" style="text;strokeColor=none;fillColor=none;align=left;verticalAlign=top;spacingLeft=4;spacingRight=4;overflow=hidden;rotatable=0;points=[[0,0.5],[1,0.5]];portConstraint=eastwest;whiteSpace=wrap;html=1;" vertex="1" parent="zcxD7a6JZqpd-PVWqcIB-53">
          <mxGeometry y="34" width="330" height="26" as="geometry" />
        </mxCell>
        <mxCell id="zcxD7a6JZqpd-PVWqcIB-57" value="CRUDEndereco" style="swimlane;fontStyle=1;align=center;verticalAlign=top;childLayout=stackLayout;horizontal=1;startSize=26;horizontalStack=0;resizeParent=1;resizeParentMax=0;resizeLast=0;collapsible=1;marginBottom=0;whiteSpace=wrap;html=1;" vertex="1" parent="1">
          <mxGeometry x="-75" y="-80" width="160" height="104" as="geometry" />
        </mxCell>
        <mxCell id="zcxD7a6JZqpd-PVWqcIB-58" value="" style="line;strokeWidth=1;fillColor=none;align=left;verticalAlign=middle;spacingTop=-1;spacingLeft=3;spacingRight=3;rotatable=0;labelPosition=right;points=[];portConstraint=eastwest;strokeColor=inherit;" vertex="1" parent="zcxD7a6JZqpd-PVWqcIB-57">
          <mxGeometry y="26" width="160" height="8" as="geometry" />
        </mxCell>
        <mxCell id="zcxD7a6JZqpd-PVWqcIB-59" value="+createEndereco( ) : void&lt;div&gt;+read&lt;span style=&quot;background-color: transparent; color: light-dark(rgb(0, 0, 0), rgb(255, 255, 255));&quot;&gt;Endereco&lt;/span&gt;&lt;span style=&quot;background-color: transparent; color: light-dark(rgb(0, 0, 0), rgb(255, 255, 255));&quot;&gt;( ) : void&lt;/span&gt;&lt;/div&gt;&lt;div&gt;+updateEndereco( ) :void&lt;/div&gt;&lt;div&gt;+deleteEndereco( ) : void&lt;/div&gt;" style="text;strokeColor=none;fillColor=none;align=left;verticalAlign=top;spacingLeft=4;spacingRight=4;overflow=hidden;rotatable=0;points=[[0,0.5],[1,0.5]];portConstraint=eastwest;whiteSpace=wrap;html=1;" vertex="1" parent="zcxD7a6JZqpd-PVWqcIB-57">
          <mxGeometry y="34" width="160" height="70" as="geometry" />
        </mxCell>
        <mxCell id="zcxD7a6JZqpd-PVWqcIB-60" value="CRUD&lt;span style=&quot;font-weight: 400; text-align: left;&quot;&gt;PlanoDoCliente&lt;/span&gt;" style="swimlane;fontStyle=1;align=center;verticalAlign=top;childLayout=stackLayout;horizontal=1;startSize=26;horizontalStack=0;resizeParent=1;resizeParentMax=0;resizeLast=0;collapsible=1;marginBottom=0;whiteSpace=wrap;html=1;" vertex="1" parent="1">
          <mxGeometry x="500" y="-104" width="190" height="104" as="geometry" />
        </mxCell>
        <mxCell id="zcxD7a6JZqpd-PVWqcIB-61" value="" style="line;strokeWidth=1;fillColor=none;align=left;verticalAlign=middle;spacingTop=-1;spacingLeft=3;spacingRight=3;rotatable=0;labelPosition=right;points=[];portConstraint=eastwest;strokeColor=inherit;" vertex="1" parent="zcxD7a6JZqpd-PVWqcIB-60">
          <mxGeometry y="26" width="190" height="8" as="geometry" />
        </mxCell>
        <mxCell id="zcxD7a6JZqpd-PVWqcIB-62" value="+createPlanoDoCliente( ) : void&lt;div&gt;+readPlanoDoCliente( ) : void&lt;/div&gt;&lt;div&gt;+updatePlanoDoCliente( ) :void&lt;/div&gt;&lt;div&gt;+deletePlanoDoCliente( ) : void&lt;/div&gt;" style="text;strokeColor=none;fillColor=none;align=left;verticalAlign=top;spacingLeft=4;spacingRight=4;overflow=hidden;rotatable=0;points=[[0,0.5],[1,0.5]];portConstraint=eastwest;whiteSpace=wrap;html=1;" vertex="1" parent="zcxD7a6JZqpd-PVWqcIB-60">
          <mxGeometry y="34" width="190" height="70" as="geometry" />
        </mxCell>
        <mxCell id="zcxD7a6JZqpd-PVWqcIB-66" value="CRUDPlano" style="swimlane;fontStyle=1;align=center;verticalAlign=top;childLayout=stackLayout;horizontal=1;startSize=26;horizontalStack=0;resizeParent=1;resizeParentMax=0;resizeLast=0;collapsible=1;marginBottom=0;whiteSpace=wrap;html=1;" vertex="1" parent="1">
          <mxGeometry x="210" y="660" width="160" height="104" as="geometry" />
        </mxCell>
        <mxCell id="zcxD7a6JZqpd-PVWqcIB-67" value="" style="line;strokeWidth=1;fillColor=none;align=left;verticalAlign=middle;spacingTop=-1;spacingLeft=3;spacingRight=3;rotatable=0;labelPosition=right;points=[];portConstraint=eastwest;strokeColor=inherit;" vertex="1" parent="zcxD7a6JZqpd-PVWqcIB-66">
          <mxGeometry y="26" width="160" height="8" as="geometry" />
        </mxCell>
        <mxCell id="zcxD7a6JZqpd-PVWqcIB-68" value="+create&lt;span style=&quot;font-weight: 700; text-align: center;&quot;&gt;Plano&lt;/span&gt;( ) : void&lt;div&gt;+read&lt;span style=&quot;font-weight: 700; text-align: center;&quot;&gt;Plano&lt;/span&gt;( ) : void&lt;/div&gt;&lt;div&gt;+update&lt;span style=&quot;font-weight: 700; text-align: center;&quot;&gt;Plano&lt;/span&gt;( ) :void&lt;/div&gt;&lt;div&gt;+delete&lt;span style=&quot;font-weight: 700; text-align: center;&quot;&gt;Plano&lt;/span&gt;( ) : void&lt;/div&gt;" style="text;strokeColor=none;fillColor=none;align=left;verticalAlign=top;spacingLeft=4;spacingRight=4;overflow=hidden;rotatable=0;points=[[0,0.5],[1,0.5]];portConstraint=eastwest;whiteSpace=wrap;html=1;" vertex="1" parent="zcxD7a6JZqpd-PVWqcIB-66">
          <mxGeometry y="34" width="160" height="70" as="geometry" />
        </mxCell>
        <mxCell id="zcxD7a6JZqpd-PVWqcIB-69" value="ReadCliente" style="swimlane;fontStyle=1;align=center;verticalAlign=top;childLayout=stackLayout;horizontal=1;startSize=26;horizontalStack=0;resizeParent=1;resizeParentMax=0;resizeLast=0;collapsible=1;marginBottom=0;whiteSpace=wrap;html=1;" vertex="1" parent="1">
          <mxGeometry x="-640" y="400" width="160" height="60" as="geometry" />
        </mxCell>
        <mxCell id="zcxD7a6JZqpd-PVWqcIB-71" value="" style="line;strokeWidth=1;fillColor=none;align=left;verticalAlign=middle;spacingTop=-1;spacingLeft=3;spacingRight=3;rotatable=0;labelPosition=right;points=[];portConstraint=eastwest;strokeColor=inherit;" vertex="1" parent="zcxD7a6JZqpd-PVWqcIB-69">
          <mxGeometry y="26" width="160" height="8" as="geometry" />
        </mxCell>
        <mxCell id="zcxD7a6JZqpd-PVWqcIB-72" value="+abrirTelaCliente( ) : void" style="text;strokeColor=none;fillColor=none;align=left;verticalAlign=top;spacingLeft=4;spacingRight=4;overflow=hidden;rotatable=0;points=[[0,0.5],[1,0.5]];portConstraint=eastwest;whiteSpace=wrap;html=1;" vertex="1" parent="zcxD7a6JZqpd-PVWqcIB-69">
          <mxGeometry y="34" width="160" height="26" as="geometry" />
        </mxCell>
        <mxCell id="zcxD7a6JZqpd-PVWqcIB-73" value="TelaCliente" style="swimlane;fontStyle=1;align=center;verticalAlign=top;childLayout=stackLayout;horizontal=1;startSize=26;horizontalStack=0;resizeParent=1;resizeParentMax=0;resizeLast=0;collapsible=1;marginBottom=0;whiteSpace=wrap;html=1;" vertex="1" parent="1">
          <mxGeometry x="-640" y="510" width="160" height="60" as="geometry" />
        </mxCell>
        <mxCell id="zcxD7a6JZqpd-PVWqcIB-75" value="" style="line;strokeWidth=1;fillColor=none;align=left;verticalAlign=middle;spacingTop=-1;spacingLeft=3;spacingRight=3;rotatable=0;labelPosition=right;points=[];portConstraint=eastwest;strokeColor=inherit;" vertex="1" parent="zcxD7a6JZqpd-PVWqcIB-73">
          <mxGeometry y="26" width="160" height="8" as="geometry" />
        </mxCell>
        <mxCell id="zcxD7a6JZqpd-PVWqcIB-76" value=",+telaCliente( ) : void" style="text;strokeColor=none;fillColor=none;align=left;verticalAlign=top;spacingLeft=4;spacingRight=4;overflow=hidden;rotatable=0;points=[[0,0.5],[1,0.5]];portConstraint=eastwest;whiteSpace=wrap;html=1;" vertex="1" parent="zcxD7a6JZqpd-PVWqcIB-73">
          <mxGeometry y="34" width="160" height="26" as="geometry" />
        </mxCell>
        <mxCell id="zcxD7a6JZqpd-PVWqcIB-77" value="TelaDelete" style="swimlane;fontStyle=1;align=center;verticalAlign=top;childLayout=stackLayout;horizontal=1;startSize=26;horizontalStack=0;resizeParent=1;resizeParentMax=0;resizeLast=0;collapsible=1;marginBottom=0;whiteSpace=wrap;html=1;" vertex="1" parent="1">
          <mxGeometry x="-640" y="620" width="160" height="60" as="geometry" />
        </mxCell>
        <mxCell id="zcxD7a6JZqpd-PVWqcIB-78" value="" style="line;strokeWidth=1;fillColor=none;align=left;verticalAlign=middle;spacingTop=-1;spacingLeft=3;spacingRight=3;rotatable=0;labelPosition=right;points=[];portConstraint=eastwest;strokeColor=inherit;" vertex="1" parent="zcxD7a6JZqpd-PVWqcIB-77">
          <mxGeometry y="26" width="160" height="8" as="geometry" />
        </mxCell>
        <mxCell id="zcxD7a6JZqpd-PVWqcIB-79" value=",+telaDelete( ) : void" style="text;strokeColor=none;fillColor=none;align=left;verticalAlign=top;spacingLeft=4;spacingRight=4;overflow=hidden;rotatable=0;points=[[0,0.5],[1,0.5]];portConstraint=eastwest;whiteSpace=wrap;html=1;" vertex="1" parent="zcxD7a6JZqpd-PVWqcIB-77">
          <mxGeometry y="34" width="160" height="26" as="geometry" />
        </mxCell>
        <mxCell id="zcxD7a6JZqpd-PVWqcIB-80" value="TelaEdit" style="swimlane;fontStyle=1;align=center;verticalAlign=top;childLayout=stackLayout;horizontal=1;startSize=26;horizontalStack=0;resizeParent=1;resizeParentMax=0;resizeLast=0;collapsible=1;marginBottom=0;whiteSpace=wrap;html=1;" vertex="1" parent="1">
          <mxGeometry x="-450" y="620" width="160" height="60" as="geometry" />
        </mxCell>
        <mxCell id="zcxD7a6JZqpd-PVWqcIB-81" value="" style="line;strokeWidth=1;fillColor=none;align=left;verticalAlign=middle;spacingTop=-1;spacingLeft=3;spacingRight=3;rotatable=0;labelPosition=right;points=[];portConstraint=eastwest;strokeColor=inherit;" vertex="1" parent="zcxD7a6JZqpd-PVWqcIB-80">
          <mxGeometry y="26" width="160" height="8" as="geometry" />
        </mxCell>
        <mxCell id="zcxD7a6JZqpd-PVWqcIB-82" value=",+telaEdit( ) : void" style="text;strokeColor=none;fillColor=none;align=left;verticalAlign=top;spacingLeft=4;spacingRight=4;overflow=hidden;rotatable=0;points=[[0,0.5],[1,0.5]];portConstraint=eastwest;whiteSpace=wrap;html=1;" vertex="1" parent="zcxD7a6JZqpd-PVWqcIB-80">
          <mxGeometry y="34" width="160" height="26" as="geometry" />
        </mxCell>
        <mxCell id="zcxD7a6JZqpd-PVWqcIB-83" value="TelaCreateCliente" style="swimlane;fontStyle=1;align=center;verticalAlign=top;childLayout=stackLayout;horizontal=1;startSize=26;horizontalStack=0;resizeParent=1;resizeParentMax=0;resizeLast=0;collapsible=1;marginBottom=0;whiteSpace=wrap;html=1;" vertex="1" parent="1">
          <mxGeometry x="-60" y="560" width="160" height="60" as="geometry" />
        </mxCell>
        <mxCell id="zcxD7a6JZqpd-PVWqcIB-84" value="" style="line;strokeWidth=1;fillColor=none;align=left;verticalAlign=middle;spacingTop=-1;spacingLeft=3;spacingRight=3;rotatable=0;labelPosition=right;points=[];portConstraint=eastwest;strokeColor=inherit;" vertex="1" parent="zcxD7a6JZqpd-PVWqcIB-83">
          <mxGeometry y="26" width="160" height="8" as="geometry" />
        </mxCell>
        <mxCell id="zcxD7a6JZqpd-PVWqcIB-85" value="+TelaCreateCliente( ) : void" style="text;strokeColor=none;fillColor=none;align=left;verticalAlign=top;spacingLeft=4;spacingRight=4;overflow=hidden;rotatable=0;points=[[0,0.5],[1,0.5]];portConstraint=eastwest;whiteSpace=wrap;html=1;" vertex="1" parent="zcxD7a6JZqpd-PVWqcIB-83">
          <mxGeometry y="34" width="160" height="26" as="geometry" />
        </mxCell>
        <mxCell id="zcxD7a6JZqpd-PVWqcIB-86" value="TelaTabelaCliente" style="swimlane;fontStyle=1;align=center;verticalAlign=top;childLayout=stackLayout;horizontal=1;startSize=26;horizontalStack=0;resizeParent=1;resizeParentMax=0;resizeLast=0;collapsible=1;marginBottom=0;whiteSpace=wrap;html=1;" vertex="1" parent="1">
          <mxGeometry x="-70" y="430" width="160" height="60" as="geometry" />
        </mxCell>
        <mxCell id="zcxD7a6JZqpd-PVWqcIB-87" value="" style="line;strokeWidth=1;fillColor=none;align=left;verticalAlign=middle;spacingTop=-1;spacingLeft=3;spacingRight=3;rotatable=0;labelPosition=right;points=[];portConstraint=eastwest;strokeColor=inherit;" vertex="1" parent="zcxD7a6JZqpd-PVWqcIB-86">
          <mxGeometry y="26" width="160" height="8" as="geometry" />
        </mxCell>
        <mxCell id="zcxD7a6JZqpd-PVWqcIB-88" value=",+telaCliente( ) : void" style="text;strokeColor=none;fillColor=none;align=left;verticalAlign=top;spacingLeft=4;spacingRight=4;overflow=hidden;rotatable=0;points=[[0,0.5],[1,0.5]];portConstraint=eastwest;whiteSpace=wrap;html=1;" vertex="1" parent="zcxD7a6JZqpd-PVWqcIB-86">
          <mxGeometry y="34" width="160" height="26" as="geometry" />
        </mxCell>
      </root>
    </mxGraphModel>
  </diagram>
</mxfile>
